<svg width="36" height="36" viewBox="0 0 36 36" fill="none" xmlns="http://www.w3.org/2000/svg">
<rect width="36" height="36" rx="10" fill="#767680" fill-opacity="0.12"/>
<path d="M12.4302 25.4692C11.9875 25.4692 11.6388 25.3696 11.3843 25.1704C11.1353 24.9767 11.0107 24.7083 11.0107 24.3652C11.0107 23.8285 11.1712 23.2668 11.4922 22.6802C11.8132 22.0881 12.278 21.5347 12.8867 21.02C13.4954 20.4998 14.2287 20.0793 15.0864 19.7583C15.9497 19.4318 16.9181 19.2686 17.9917 19.2686C19.0708 19.2686 20.0392 19.4318 20.897 19.7583C21.7603 20.0793 22.4935 20.4998 23.0967 21.02C23.7054 21.5347 24.1702 22.0881 24.4912 22.6802C24.8177 23.2668 24.981 23.8285 24.981 24.3652C24.981 24.7083 24.8537 24.9767 24.5991 25.1704C24.3501 25.3696 24.0042 25.4692 23.5615 25.4692H12.4302ZM18 17.7827C17.4079 17.7827 16.86 17.6222 16.3564 17.3013C15.8529 16.9748 15.4461 16.5376 15.1362 15.9897C14.8319 15.4364 14.6797 14.8166 14.6797 14.1304C14.6797 13.4552 14.8319 12.8465 15.1362 12.3042C15.4461 11.7619 15.8529 11.333 16.3564 11.0176C16.86 10.7021 17.4079 10.5444 18 10.5444C18.5921 10.5444 19.14 10.6994 19.6436 11.0093C20.1471 11.3192 20.5511 11.7453 20.8555 12.2876C21.1654 12.8244 21.3203 13.4331 21.3203 14.1138C21.3203 14.8055 21.1654 15.4281 20.8555 15.9814C20.5511 16.5348 20.1471 16.9748 19.6436 17.3013C19.14 17.6222 18.5921 17.7827 18 17.7827Z" fill="black"/>
</svg>
