<svg width="36" height="36" viewBox="0 0 36 36" fill="none" xmlns="http://www.w3.org/2000/svg">
<rect width="36" height="36" rx="10" fill="#767680" fill-opacity="0.12"/>
<path d="M14.8789 12.022C14.8789 11.4465 15.0173 10.9235 15.2939 10.4531C15.5762 9.97721 15.9525 9.59814 16.4229 9.31592C16.8932 9.03369 17.4162 8.89258 17.9917 8.89258C18.5728 8.89258 19.0985 9.03369 19.5688 9.31592C20.0392 9.59814 20.4128 9.97721 20.6895 10.4531C20.9717 10.9235 21.1128 11.4465 21.1128 12.022C21.1128 12.509 21.0104 12.96 20.8057 13.375C20.6009 13.79 20.3215 14.1442 19.9673 14.4375C19.6131 14.7308 19.2119 14.9328 18.7637 15.0435V22.7466C18.7637 23.3608 18.7388 23.9032 18.689 24.3735C18.6392 24.8439 18.5755 25.2396 18.498 25.5605C18.4261 25.8815 18.3431 26.1222 18.249 26.2827C18.1605 26.4487 18.0747 26.5317 17.9917 26.5317C17.9087 26.5317 17.8229 26.4487 17.7344 26.2827C17.6458 26.1167 17.5628 25.8732 17.4854 25.5522C17.4079 25.2313 17.3442 24.8356 17.2944 24.3652C17.2446 23.9004 17.2197 23.3608 17.2197 22.7466V15.0435C16.7715 14.9328 16.3703 14.7308 16.0161 14.4375C15.6619 14.1442 15.3825 13.79 15.1777 13.375C14.9785 12.96 14.8789 12.509 14.8789 12.022ZM17.0952 12.188C17.3885 12.188 17.6403 12.0828 17.8506 11.8726C18.0609 11.6567 18.166 11.4049 18.166 11.1172C18.166 10.8294 18.0609 10.5804 17.8506 10.3701C17.6403 10.1598 17.3885 10.0547 17.0952 10.0547C16.813 10.0547 16.564 10.1598 16.3481 10.3701C16.1379 10.5804 16.0327 10.8294 16.0327 11.1172C16.0327 11.4049 16.1379 11.6567 16.3481 11.8726C16.564 12.0828 16.813 12.188 17.0952 12.188Z" fill="black"/>
</svg>
