<svg width="40" height="40" viewBox="0 0 40 40" fill="none" xmlns="http://www.w3.org/2000/svg">
<g style="mix-blend-mode:plus-darker">
<path d="M0 20C0 8.95431 8.95431 0 20 0V0C31.0457 0 40 8.95431 40 20V20C40 31.0457 31.0457 40 20 40V40C8.95431 40 0 31.0457 0 20V20Z" fill="#767680" fill-opacity="0.12"/>
<path d="M14 28.0508C13.8672 28.1836 13.707 28.2734 13.5195 28.3203C13.3398 28.3672 13.1602 28.3672 12.9805 28.3203C12.8008 28.2734 12.6445 28.1836 12.5117 28.0508C12.3711 27.918 12.2773 27.7617 12.2305 27.582C12.1914 27.3945 12.1953 27.2109 12.2422 27.0312C12.2891 26.8516 12.3789 26.6953 12.5117 26.5625L26.0117 13.0625C26.1445 12.9297 26.3008 12.8398 26.4805 12.793C26.6602 12.7461 26.8398 12.7461 27.0195 12.793C27.1992 12.8398 27.3555 12.9297 27.4883 13.0625C27.6289 13.1953 27.7188 13.3555 27.7578 13.543C27.8047 13.7227 27.8047 13.9023 27.7578 14.082C27.7188 14.2617 27.6289 14.418 27.4883 14.5508L14 28.0508ZM12.5117 14.5508C12.3789 14.418 12.2891 14.2617 12.2422 14.082C12.1953 13.9023 12.1914 13.7227 12.2305 13.543C12.2773 13.3555 12.3711 13.1953 12.5117 13.0625C12.6445 12.9297 12.8008 12.8398 12.9805 12.793C13.1602 12.7461 13.3398 12.7461 13.5195 12.793C13.707 12.8398 13.8672 12.9297 14 13.0625L27.4883 26.5625C27.6289 26.6953 27.7188 26.8516 27.7578 27.0312C27.8047 27.2109 27.8047 27.3945 27.7578 27.582C27.7188 27.7617 27.6289 27.918 27.4883 28.0508C27.3555 28.1836 27.1992 28.2734 27.0195 28.3203C26.8398 28.3672 26.6602 28.3672 26.4805 28.3203C26.3008 28.2734 26.1445 28.1836 26.0117 28.0508L12.5117 14.5508Z" fill="#999999"/>
</g>
</svg>
